HIERARCHY
ROOT ROOT
{
	OFFSET 0.000000 56.020000 -5.659234
	CHANNELS 6 Xposition Yposition Zposition Xrotation Yrotation Zrotation 
	JOINT C_spine0001_bind_JNT
	{
		OFFSET 0.000000 1.618999 0.000000
		CHANNELS 3 Xrotation Yrotation Zrotation
		JOINT C_spine0002_bind_JNT
		{
			OFFSET 0.000000 4.942001 0.000001
			CHANNELS 3 Xrotation Yrotation Zrotation
			JOINT C_spine0003_bind_JNT
			{
				OFFSET 0.000000 4.942001 -0.000000
				CHANNELS 3 Xrotation Yrotation Zrotation
				JOINT C_neck0001_bind_JNT
				{
					OFFSET 0.000000 17.026009 -0.000000
					CHANNELS 3 Xrotation Yrotation Zrotation
					JOINT C_neck0002_bind_JNT
					{
						OFFSET 0.000000 3.249985 0.000000
						CHANNELS 3 Xrotation Yrotation Zrotation
						JOINT C_head_bind_JNT
						{
							OFFSET 0.000000 5.278008 0.000000
							CHANNELS 3 Xrotation Yrotation Zrotation
							End Site
							{
								OFFSET 0.000000 0.000000 0.000000
							}
						}
					}
				}
				JOINT L_clavicle_bind_JNT
				{
					OFFSET 4.590000 12.067001 0.834000
					CHANNELS 3 Xrotation Yrotation Zrotation
					JOINT L_armUpper0001_bind_JNT
					{
						OFFSET 7.812635 0.512001 -3.452945
						CHANNELS 3 Xrotation Yrotation Zrotation
						JOINT L_armLower0001_bind_JNT
						{
							OFFSET 15.265892 -6.552116 -0.058157
							CHANNELS 3 Xrotation Yrotation Zrotation
							JOINT L_hand0001_bind_JNT
							{
								OFFSET 14.747667 -6.369995 5.049225
								CHANNELS 3 Xrotation Yrotation Zrotation
								End Site
								{
									OFFSET 0.000000 0.000000 0.000000
								}
							}
						}
					}
				}
				JOINT R_clavicle_bind_JNT
				{
					OFFSET -4.590000 12.067001 0.834000
					CHANNELS 3 Xrotation Yrotation Zrotation
					JOINT R_armUpper0001_bind_JNT
					{
						OFFSET -7.812635 0.512001 -3.452945
						CHANNELS 3 Xrotation Yrotation Zrotation
						JOINT R_armLower0001_bind_JNT
						{
							OFFSET -15.265890 -6.552124 -0.058160
							CHANNELS 3 Xrotation Yrotation Zrotation
							JOINT R_hand0001_bind_JNT
							{
								OFFSET -14.746784 -6.369629 5.048937
								CHANNELS 3 Xrotation Yrotation Zrotation
								End Site
								{
									OFFSET 0.000000 0.000000 0.000000
								}
							}
						}
					}
				}
			}
		}
	}
	JOINT C_pelvis0001_bind_JNT
	{
		OFFSET -0.000000 0.000000 0.000000
		CHANNELS 3 Xrotation Yrotation Zrotation
		JOINT L_legUpper0001_bind_JNT
		{
			OFFSET 6.599999 -6.027000 0.539000
			CHANNELS 3 Xrotation Yrotation Zrotation
			JOINT L_legLower0001_bind_JNT
			{
				OFFSET -0.140713 -19.187443 0.040261
				CHANNELS 3 Xrotation Yrotation Zrotation
				JOINT L_foot0001_bind_JNT
				{
					OFFSET -0.132215 -18.028637 -1.138370
					CHANNELS 3 Xrotation Yrotation Zrotation
					JOINT L_foot0002_bind_JNT
					{
						OFFSET 0.007014 -4.693133 9.886524
						CHANNELS 3 Xrotation Yrotation Zrotation
						End Site
						{
							OFFSET 0.000000 0.000000 0.000000
						}
					}
				}
			}
		}
		JOINT R_legUpper0001_bind_JNT
		{
			OFFSET -6.599999 -6.027000 0.539000
			CHANNELS 3 Xrotation Yrotation Zrotation
			JOINT R_legLower0001_bind_JNT
			{
				OFFSET 0.140710 -19.187164 0.040550
				CHANNELS 3 Xrotation Yrotation Zrotation
				JOINT R_foot0001_bind_JNT
				{
					OFFSET 0.132215 -18.028633 -1.138362
					CHANNELS 3 Xrotation Yrotation Zrotation
					JOINT R_foot0002_bind_JNT
					{
						OFFSET -0.007014 -4.693128 9.886505
						CHANNELS 3 Xrotation Yrotation Zrotation
						End Site
						{
							OFFSET 0.000000 0.000000 0.000000
						}
					}
				}
			}
		}
	}
}
MOTION
Frames: 16
Frame Time: 0.033333
7.349043 48.829491 43.119213 0.014385 -2.079283 -0.024287 12.327906 21.094900 -0.875625 -2.407005 1.637543 0.398786 6.480978 1.258900 -0.764278 9.204959 1.005439 -0.621282 -0.123060 -0.056875 -0.017934 -20.289078 1.900570 0.091545 11.564537 -0.018967 18.469805 -10.222238 -10.735423 -64.738403 -2.189218 -11.210189 -17.955952 2.747100 -9.178657 -13.441057 11.923429 -2.248310 -15.516922 -32.207287 9.418350 73.798553 16.517227 -6.199097 2.075122 0.283665 10.600731 22.327785 10.737184 18.138380 -0.711070 -25.443968 13.523399 3.037504 25.878416 -0.234220 -1.545161 -5.471645 0.861294 -3.425509 -2.726382 -0.742502 -0.376478 -9.677469 -12.898088 0.073303 7.900381 -0.169334 0.924037 -6.918825 1.070883 -1.333049 -2.056021 0.139129 -0.366045 
7.715242 48.763351 43.596268 0.015800 -2.540316 -0.035016 12.306448 21.745148 -1.494172 -2.349819 1.716224 0.301049 6.463697 1.338903 -0.961125 9.229872 0.781201 -0.529952 -0.164962 -0.069179 0.058919 -20.168289 1.484848 0.314623 11.911131 0.257114 18.338448 -10.214277 -10.567122 -64.760941 -1.901024 -10.555117 -17.266882 2.703168 -9.622637 -12.993458 12.201712 -2.382456 -15.790502 -32.623749 9.679076 74.118492 16.939119 -5.654323 2.504308 -0.111493 10.998258 21.886408 10.696934 18.475874 -1.325589 -25.150862 14.057642 3.058948 21.750177 -0.960802 -1.126013 -3.945851 0.093498 -2.831808 -1.673128 -0.758602 -0.482820 -8.812227 -12.652877 0.559710 7.803133 -0.691750 0.983133 -7.397822 0.726950 -1.228760 -2.153075 0.169464 -0.225702 
8.168408 48.675606 44.190754 0.018558 -2.539403 -0.026928 12.107859 22.047987 -2.075601 -2.206024 1.889922 0.134308 6.452731 1.428885 -1.196317 9.270527 0.537666 -0.161266 -0.146181 -0.032510 -0.084321 -20.012157 1.064429 0.589487 12.182421 0.335931 18.215927 -9.954119 -10.316522 -64.553955 -1.684648 -9.981332 -16.809988 2.492938 -10.047920 -12.461716 12.461859 -2.581150 -15.742013 -32.917953 9.828090 74.591553 17.302210 -5.045311 2.639225 -0.103740 11.061573 21.459387 10.636513 18.624657 -1.905197 -25.248142 14.390045 2.958000 19.621090 -1.760011 -0.917558 -3.184415 -0.568437 -1.792411 -0.558823 -0.600854 -0.352985 -7.926554 -12.251245 0.935572 7.710633 -1.144606 1.022494 -7.943901 0.058855 -1.045799 -2.199269 0.075082 -0.129923 
8.647480 48.576862 44.840801 0.021114 -2.782866 -0.031840 11.970626 22.625355 -2.900922 -2.172653 1.933151 0.183815 6.457573 1.535637 -1.297498 9.360982 0.330392 -0.075799 -0.210139 -0.008996 0.035315 -19.732201 0.654841 0.675992 12.279546 0.469854 17.851404 -9.440141 -10.028889 -64.458427 -1.416839 -9.527222 -16.118336 2.345473 -10.633121 -11.969115 12.880948 -2.818059 -15.905343 -33.306282 9.981514 75.125366 17.614803 -4.693235 2.680151 -0.296261 11.324140 21.165043 10.546290 18.884996 -2.551318 -25.087955 14.914909 2.641166 18.776081 -2.163377 -0.780066 -3.024291 -1.397784 -0.295407 -0.479129 -0.549968 0.007547 -6.941916 -11.701678 1.478812 7.740033 -1.839586 1.194859 -8.418236 -0.354953 -0.924097 -2.437874 -0.088403 -0.066131 
9.021094 48.513626 45.473747 0.013694 -2.717340 -0.029101 12.029948 22.854355 -3.646717 -2.321918 2.102392 0.056492 6.455712 1.533482 -1.600167 9.419013 0.211359 0.175170 -0.089956 -0.024417 -0.032402 -19.510136 0.292621 0.938481 12.301171 0.627442 17.774632 -9.049791 -9.769398 -64.285187 -1.324935 -8.906509 -15.661505 1.979727 -11.132225 -11.634631 13.072264 -2.847264 -15.852322 -33.480602 9.968806 75.881500 17.891537 -4.342548 2.544738 -0.259815 11.348219 21.004782 10.433634 18.984779 -3.176714 -24.520422 15.112408 2.519021 18.859455 -2.493547 -0.460631 -3.635873 -1.425285 0.787743 -0.842750 -0.462212 0.071435 -6.330592 -11.288122 1.872629 8.270764 -2.350822 1.149240 -8.989118 -0.542813 -0.568456 -2.559556 -0.229352 0.070470 
9.386452 48.427696 45.933189 0.019108 -2.981539 -0.032534 12.086718 23.564207 -4.583547 -2.294090 2.132512 -0.001420 6.454093 1.518368 -1.891939 9.585773 -0.037155 0.288801 -0.215832 0.000553 0.059913 -19.224733 -0.291465 1.112897 12.203697 0.795517 17.619350 -8.573967 -9.277325 -64.065872 -1.239393 -8.730423 -15.363479 1.757990 -11.171919 -11.311189 13.296283 -2.858793 -16.089706 -33.994995 10.041975 76.882385 18.118179 -4.114610 2.380573 -0.431830 11.308351 20.807312 10.506772 19.355896 -3.932943 -24.127850 15.469358 2.616600 19.006252 -3.075816 0.175645 -4.261537 -1.295093 1.447144 -1.291787 -0.345034 0.016780 -5.851069 -10.984319 2.070246 8.837467 -2.797851 1.364188 -9.320939 -0.744253 -0.132225 -3.063957 -0.258644 0.049454 
9.777439 48.389889 46.313942 0.016901 -3.004846 -0.027756 12.258930 23.991720 -5.394524 -2.400344 2.306508 -0.200725 6.452588 1.480523 -2.249918 9.553289 -0.244597 0.520868 -0.117256 0.076243 0.039480 -19.091282 -1.009071 1.492140 12.127499 0.897512 17.616964 -8.320004 -8.980618 -63.797295 -1.298850 -8.256533 -15.133641 1.332060 -11.489053 -11.072339 13.429656 -2.875731 -16.182438 -34.276905 10.009468 77.935127 18.286386 -3.935749 2.069468 -0.600478 11.353785 20.751486 10.489089 19.655039 -4.385681 -23.726543 15.764752 2.659086 19.322697 -3.631150 0.463068 -4.917774 -1.170093 1.859835 -1.294257 -0.365642 -0.045474 -5.652008 -10.754506 1.877405 9.959983 -3.278111 1.589796 -9.692821 -0.937770 0.496770 -3.690650 -0.152058 -0.210609 
10.206853 48.358143 46.631271 0.019642 -3.306141 -0.031973 12.334239 24.726709 -6.261173 -2.362700 2.351215 -0.411860 6.483653 1.617241 -2.488970 9.789882 -0.462707 0.631532 -0.245447 0.044065 0.105350 -18.755169 -1.410643 1.566275 12.012278 1.038254 17.505335 -8.033532 -8.698587 -63.512928 -1.302397 -8.058975 -14.923976 1.021358 -11.656268 -10.971277 13.674608 -2.824615 -16.337528 -34.855930 10.114264 78.910660 18.537771 -3.859627 1.697657 -0.627783 11.455443 20.753357 10.627502 20.133970 -4.902466 -23.672077 16.156143 2.624568 19.690388 -3.978443 0.656835 -5.466197 -1.283504 2.171256 -1.426375 -0.514579 0.056674 -5.817972 -10.709351 1.494448 11.546317 -3.703845 2.097668 -9.996487 -1.243161 1.306755 -4.730006 0.041371 -0.765011 
10.640530 48.365471 46.901779 0.019031 -3.505542 -0.028977 12.567169 25.183987 -6.963416 -2.419939 2.557561 -0.539845 6.558525 1.709857 -2.781943 9.783035 -0.713839 0.803730 -0.110378 0.101283 -0.021482 -18.602516 -1.883857 1.792722 11.931749 1.023339 17.410593 -7.921279 -8.665377 -63.170086 -1.571905 -7.695011 -15.123282 0.821343 -11.882670 -10.826778 13.753063 -2.851073 -16.380220 -35.521870 10.432007 79.906845 18.729635 -4.085692 1.147037 -0.619614 11.555069 20.910425 10.786409 20.430313 -5.207000 -23.443480 16.444551 2.366136 19.700798 -4.266299 0.742988 -5.878291 -1.243697 2.462751 -1.331813 -0.577971 0.175942 -6.428979 -10.713625 0.915356 13.590950 -3.870944 2.570658 -9.863191 -1.552805 2.125015 -6.134249 0.340020 -1.419377 
11.090363 48.370342 47.172123 0.015203 -3.664030 -0.028170 12.892124 25.565102 -7.769481 -2.401926 2.707083 -0.734099 6.597778 1.822603 -2.972260 9.883967 -0.937278 0.903110 -0.180251 0.067545 0.037008 -18.445930 -2.235221 1.864425 11.825438 0.956698 17.232454 -7.584696 -8.416891 -62.646320 -1.799800 -7.927181 -15.349527 0.491697 -11.908125 -10.779119 13.795276 -2.856357 -16.326893 -36.352539 10.805501 80.826828 19.192499 -4.222842 0.629604 -0.366838 11.765382 20.981846 11.129696 20.649101 -5.740416 -23.261391 16.593132 2.132174 19.719465 -4.470394 0.967088 -6.233553 -1.192274 2.743642 -1.545481 -0.526676 0.258235 -7.451174 -10.879282 0.279434 16.246244 -4.033028 3.153399 -9.347890 -1.784800 3.251318 -8.373450 0.541112 -2.127331 
11.473150 48.400719 47.389034 0.015381 -3.931475 -0.026682 13.214071 25.972239 -8.471524 -2.422518 2.893299 -0.851031 6.734917 1.896043 -3.264581 9.958707 -1.114475 1.096351 -0.211271 0.133807 0.016133 -18.287355 -2.697780 2.068936 11.690444 0.906327 17.130789 -7.283258 -8.419765 -62.127014 -2.049114 -8.097363 -15.719471 0.156214 -11.928697 -10.764547 13.883982 -2.933289 -16.221336 -37.266228 11.318213 81.619102 19.529718 -4.468750 0.378718 -0.351310 12.037883 21.175039 11.305177 20.896334 -6.155226 -23.042868 16.988176 2.133074 19.534710 -4.796651 0.981698 -6.574512 -1.227933 3.052000 -1.460591 -0.548585 0.355379 -8.983159 -10.997970 -0.565860 19.679237 -4.042295 3.776692 -8.312186 -1.542828 4.226498 -11.265395 0.807532 -2.800207 
11.887626 48.402443 47.567909 0.015813 -4.270809 -0.028963 13.531308 26.391054 -9.252309 -2.336015 2.977116 -0.991877 6.764680 1.958122 -3.403309 9.993722 -1.363904 1.181395 -0.133814 0.120590 -0.009414 -18.172970 -3.199836 2.207254 11.652207 0.849149 16.909988 -6.956326 -8.313010 -61.459263 -2.296426 -8.585345 -16.110056 -0.081089 -11.785069 -11.008228 13.953227 -2.870958 -16.112690 -38.122314 11.713362 82.168221 19.848516 -4.617133 0.222036 -0.080755 12.336318 21.101633 11.500754 21.185661 -6.694795 -22.739389 17.275389 1.896673 19.334631 -5.089634 1.323975 -6.832657 -1.111549 3.327131 -1.587007 -0.516593 0.384149 -10.675477 -11.074662 -1.582819 23.767538 -3.808748 4.551503 -6.541263 -1.264861 5.257803 -14.986185 0.964673 -3.470254 
12.279371 48.413757 47.759499 0.018168 -4.480954 -0.034249 13.750846 26.502289 -9.826309 -2.287914 3.122595 -0.984100 6.848309 1.949497 -3.569598 10.128442 -1.446570 1.278444 -0.223750 0.126028 -0.000679 -17.957726 -3.442337 2.347957 11.548188 0.858048 16.833244 -6.807874 -8.427461 -61.002636 -2.508890 -8.880859 -16.574614 -0.288987 -11.652376 -11.031183 14.002007 -2.791209 -16.008337 -38.619492 11.890250 82.501114 20.132992 -4.595275 -0.039611 0.086186 12.501478 21.323620 11.548649 21.377487 -7.050991 -22.239742 17.549168 1.857388 19.081577 -5.197500 1.243755 -7.143563 -1.091844 3.656034 -1.638957 -0.466419 0.444344 -12.405550 -11.053464 -2.658734 27.682123 -3.715630 5.161437 -4.722154 -0.980210 5.729418 -18.447714 0.937756 -3.348288 
12.671685 48.381905 47.954250 0.013909 -4.627126 -0.030893 13.933728 26.605812 -10.263968 -2.157411 3.135216 -1.065790 6.950972 1.966717 -3.638834 10.226529 -1.635555 1.317068 -0.233204 0.161418 -0.002902 -17.775087 -3.853812 2.426557 11.443116 0.642596 16.695583 -6.492224 -8.309395 -60.449017 -2.644632 -9.713528 -17.048763 -0.572280 -11.129038 -11.145308 13.828884 -2.813813 -15.846072 -38.891190 12.145951 82.657394 20.275337 -4.659197 -0.212858 0.173051 12.788238 21.259932 11.554856 21.459188 -7.292459 -21.688671 17.790144 1.519783 18.923334 -5.254488 1.375045 -7.549033 -0.929576 3.939649 -1.709126 -0.375597 0.511838 -14.115349 -10.964938 -3.918284 31.611469 -3.649215 5.765781 -2.827803 -0.724319 5.929911 -21.298016 0.705501 -3.057600 
13.025253 48.377934 48.194576 0.017196 -4.922442 -0.033913 14.162048 26.631357 -10.694016 -2.135511 3.198441 -1.066990 6.964030 1.929171 -3.769030 10.358768 -1.717836 1.386039 -0.224164 0.127409 0.020190 -17.489510 -4.106508 2.459779 11.217284 0.546068 16.637247 -6.062586 -8.602073 -59.964535 -2.976607 -10.046649 -17.613567 -0.626153 -10.655400 -10.944731 13.839690 -2.804866 -15.870799 -39.059769 12.196754 82.957619 20.284878 -4.599920 -0.606316 0.248373 12.925206 21.566519 11.679145 21.581038 -7.563838 -21.091480 18.138517 1.374057 18.614067 -5.417414 1.349527 -7.948057 -0.770744 4.215773 -1.761983 -0.348345 0.527529 -15.702842 -10.855510 -4.711498 34.721401 -3.520341 6.148420 -1.263241 -0.523619 5.849843 -23.296200 0.272973 -2.081799 
13.379876 48.381817 48.376648 0.013140 -5.243514 -0.033260 14.368989 26.728468 -11.024580 -2.129649 3.171783 -1.119195 7.064038 1.933907 -3.853475 10.499080 -1.955069 1.427070 -0.203047 0.083003 0.028696 -17.180065 -4.512643 2.574874 11.074130 0.138142 16.542124 -5.692935 -8.475261 -59.440033 -2.959234 -10.419561 -18.063221 -0.795103 -10.151038 -11.025517 13.617585 -2.722329 -15.779811 -39.097775 12.130672 82.999252 20.484797 -4.684774 -0.724826 0.147597 13.122028 21.557735 11.720819 21.683149 -7.781967 -20.491745 18.346661 1.067832 18.242643 -5.402233 1.381221 -8.255697 -0.611498 4.428520 -1.753233 -0.307687 0.565328 -16.888193 -10.719901 -5.440753 37.065075 -3.305253 6.308511 -0.297529 -0.432428 5.843806 -24.281628 -0.040394 -1.389379 
